<svg xmlns="http://www.w3.org/2000/svg" width="1200" height="360" viewBox="0 0 1200 360" role="img" aria-label="Brigade terminal — let your agents cook">
<defs>
<linearGradient id="eg" x1="0" y1="0" x2="1" y2="0"><stop offset="0" stop-color="#ff5c1f"></stop><stop offset="0.55" stop-color="#ff9d3d"></stop><stop offset="1" stop-color="#ffd48a"></stop></linearGradient>
<linearGradient id="egv" x1="0" y1="1" x2="0" y2="0"><stop offset="0" stop-color="#ff5c1f"></stop><stop offset="0.55" stop-color="#ff9d3d"></stop><stop offset="1" stop-color="#ffd48a"></stop></linearGradient>
<radialGradient id="warm" cx="0.5" cy="0.55" r="0.65"><stop offset="0" stop-color="#ff7a2f" stop-opacity="0.22"></stop><stop offset="1" stop-color="#ff7a2f" stop-opacity="0"></stop></radialGradient>
<filter id="gl" x="-60%" y="-60%" width="220%" height="220%"><feGaussianBlur stdDeviation="4"></feGaussianBlur></filter>
</defs>
<rect width="1200" height="360" rx="16" fill="#0e1013"></rect>
<ellipse cx="600" cy="185" rx="440" ry="210" fill="url(#warm)" opacity="0.5"></ellipse>
<rect x="220" y="36" width="760" height="288" rx="14" fill="#14171c" stroke="#262b33" stroke-width="2"></rect>
<path d="M 221 83 L 979 83 L 979 50 A 13 13 0 0 0 966 37 L 234 37 A 13 13 0 0 0 221 50 Z" fill="#1a1e24"></path>
<circle cx="254" cy="60" r="7" fill="#ff5f57"></circle><circle cx="278" cy="60" r="7" fill="#febc2e"></circle><circle cx="302" cy="60" r="7" fill="#28c840"></circle>
<g transform="translate(600,54) scale(0.24)"><g fill="none" stroke="#f5f7fa" stroke-width="10" stroke-linejoin="round" stroke-linecap="round"><path d="M -42 34 L -42 12 A 24 24 0 1 1 -25 -30 A 30 30 0 0 1 25 -30 A 24 24 0 1 1 42 12 L 42 34 Z"></path><rect x="-46" y="46" width="92" height="20" rx="8"></rect></g></g>
<g font-family="ui-monospace,SFMono-Regular,Menlo,Consolas,monospace" font-size="25" font-weight="500">
<text x="262" y="127" fill="#79828f">$ brigade run</text>
<text x="262" y="167" fill="#c9d2dd"><tspan fill="#ffb45e">⌕</tspan> scouts fanning out (4)</text>
<text x="262" y="207" fill="#c9d2dd"><tspan fill="#ffb45e">♨</tspan> cook 2/3: auth-rate-limit</text>
<text x="262" y="247" fill="#c9d2dd"><tspan fill="#7ddba4">✓</tspan> inspector: PASS — landing</text>
<g filter="url(#gl)" opacity="0.3"><text x="262" y="294" fill="#ff8a33" font-weight="600">✻ let your agents cook… ▍</text></g>
<text x="262" y="294" fill="url(#eg)" font-weight="600">✻ let your agents cook… ▍</text>
</g>
</svg>