<svg xmlns="http://www.w3.org/2000/svg" width="1200" height="360" viewBox="0 0 1200 360" role="img" aria-label="Brigade pipeline — scouts, planner, cooks, inspector — let your agents cook">
<defs>
<linearGradient id="eg" x1="0" y1="0" x2="1" y2="0"><stop offset="0" stop-color="#ff5c1f"></stop><stop offset="0.55" stop-color="#ff9d3d"></stop><stop offset="1" stop-color="#ffd48a"></stop></linearGradient>
<linearGradient id="egv" x1="0" y1="1" x2="0" y2="0"><stop offset="0" stop-color="#ff5c1f"></stop><stop offset="0.55" stop-color="#ff9d3d"></stop><stop offset="1" stop-color="#ffd48a"></stop></linearGradient>
<radialGradient id="warm" cx="0.5" cy="0.55" r="0.65"><stop offset="0" stop-color="#ff7a2f" stop-opacity="0.22"></stop><stop offset="1" stop-color="#ff7a2f" stop-opacity="0"></stop></radialGradient>
<filter id="gl" x="-60%" y="-60%" width="220%" height="220%"><feGaussianBlur stdDeviation="4"></feGaussianBlur></filter>
</defs>
<rect width="1200" height="360" rx="16" fill="#0e1013"></rect>
<ellipse cx="810" cy="160" rx="380" ry="230" fill="url(#warm)" opacity="0.4"></ellipse>
<g transform="translate(125,150.4) scale(0.55)"><g fill="none" stroke="#f5f7fa" stroke-width="8" stroke-linejoin="round" stroke-linecap="round"><path d="M -42 34 L -42 12 A 24 24 0 1 1 -25 -30 A 30 30 0 0 1 25 -30 A 24 24 0 1 1 42 12 L 42 34 Z"></path><path d="M -16 8 L -16 26 M 0 10 L 0 28 M 16 8 L 16 26"></path><rect x="-46" y="46" width="92" height="22" rx="8"></rect></g></g><g transform="translate(230,150.4) scale(0.55)"><g fill="none" stroke="#f5f7fa" stroke-width="8" stroke-linejoin="round" stroke-linecap="round"><path d="M -42 34 L -42 12 A 24 24 0 1 1 -25 -30 A 30 30 0 0 1 25 -30 A 24 24 0 1 1 42 12 L 42 34 Z"></path><path d="M -16 8 L -16 26 M 0 10 L 0 28 M 16 8 L 16 26"></path><rect x="-46" y="46" width="92" height="22" rx="8"></rect></g></g><text x="177" y="252" fill="#79828f" font-family="ui-monospace,SFMono-Regular,Menlo,Consolas,monospace" font-size="21" font-weight="500" text-anchor="middle">scouts</text>
<g stroke="#79828f" stroke-width="3.5" stroke-linecap="round" opacity="0.65" fill="none"><path d="M 295 160 L 369 160" stroke-dasharray="1 11"></path><path d="M 371 152 L 385 160 L 371 168"></path></g>
<g transform="translate(465,130) scale(0.85)"><g fill="none" stroke="url(#eg)" stroke-width="7" stroke-linejoin="round" stroke-linecap="round"><path d="M -42 34 L -42 12 A 24 24 0 1 1 -25 -30 A 30 30 0 0 1 25 -30 A 24 24 0 1 1 42 12 L 42 34 Z"></path><path d="M -16 8 L -16 26 M 0 10 L 0 28 M 16 8 L 16 26"></path><rect x="-46" y="46" width="92" height="22" rx="8"></rect></g></g><text x="465" y="252" fill="#79828f" font-family="ui-monospace,SFMono-Regular,Menlo,Consolas,monospace" font-size="21" font-weight="500" text-anchor="middle">planner</text>
<g stroke="#ff8a33" stroke-width="3.5" stroke-linecap="round" opacity="0.65" fill="none"><path d="M 545 160 L 619 160" stroke-dasharray="1 11"></path><path d="M 621 152 L 635 160 L 621 168"></path></g>
<g transform="translate(810,108) scale(0.55)"><g fill="none" stroke="url(#egv)" stroke-width="4.95" stroke-linecap="round">
<g filter="url(#gl)" opacity="0.5">
<path d="M -32 -92 c 8 -12 -8 -20 0 -34 c 6 -11 -4 -16 1 -26" transform="scale(0.9)"></path>
<path d="M 2 -102 c 8 -12 -8 -20 0 -34 c 6 -11 -4 -16 1 -26" transform="scale(0.9)"></path>
<path d="M 36 -92 c 8 -12 -8 -20 0 -34" transform="scale(0.9)"></path>
</g>
<path d="M -32 -92 c 8 -12 -8 -20 0 -34 c 6 -11 -4 -16 1 -26" opacity="0.85" transform="scale(0.9)"></path>
<path d="M 2 -102 c 8 -12 -8 -20 0 -34 c 6 -11 -4 -16 1 -26" opacity="0.6" transform="scale(0.9)"></path>
<path d="M 36 -92 c 8 -12 -8 -20 0 -34" opacity="0.4" transform="scale(0.9)"></path>
</g></g>
<g transform="translate(710,150.4) scale(0.55)"><g fill="none" stroke="#f5f7fa" stroke-width="8" stroke-linejoin="round" stroke-linecap="round"><path d="M -42 34 L -42 12 A 24 24 0 1 1 -25 -30 A 30 30 0 0 1 25 -30 A 24 24 0 1 1 42 12 L 42 34 Z"></path><path d="M -16 8 L -16 26 M 0 10 L 0 28 M 16 8 L 16 26"></path><rect x="-46" y="46" width="92" height="22" rx="8"></rect></g></g><g transform="translate(810,150.4) scale(0.55)"><g fill="none" stroke="#f5f7fa" stroke-width="8" stroke-linejoin="round" stroke-linecap="round"><path d="M -42 34 L -42 12 A 24 24 0 1 1 -25 -30 A 30 30 0 0 1 25 -30 A 24 24 0 1 1 42 12 L 42 34 Z"></path><path d="M -16 8 L -16 26 M 0 10 L 0 28 M 16 8 L 16 26"></path><rect x="-46" y="46" width="92" height="22" rx="8"></rect></g></g><g transform="translate(910,150.4) scale(0.55)"><g fill="none" stroke="#f5f7fa" stroke-width="8" stroke-linejoin="round" stroke-linecap="round"><path d="M -42 34 L -42 12 A 24 24 0 1 1 -25 -30 A 30 30 0 0 1 25 -30 A 24 24 0 1 1 42 12 L 42 34 Z"></path><path d="M -16 8 L -16 26 M 0 10 L 0 28 M 16 8 L 16 26"></path><rect x="-46" y="46" width="92" height="22" rx="8"></rect></g></g><text x="810" y="252" fill="#79828f" font-family="ui-monospace,SFMono-Regular,Menlo,Consolas,monospace" font-size="21" font-weight="500" text-anchor="middle">cooks</text>
<g stroke="#79828f" stroke-width="3.5" stroke-linecap="round" opacity="0.65" fill="none"><path d="M 975 160 L 1019 160" stroke-dasharray="1 11"></path><path d="M 1021 152 L 1035 160 L 1021 168"></path></g>
<g transform="translate(1110,130) scale(0.85)"><g fill="none" stroke="#f5f7fa" stroke-width="7" stroke-linejoin="round" stroke-linecap="round"><path d="M -42 34 L -42 12 A 24 24 0 1 1 -25 -30 A 30 30 0 0 1 25 -30 A 24 24 0 1 1 42 12 L 42 34 Z"></path><path d="M -16 8 L -16 26 M 0 10 L 0 28 M 16 8 L 16 26"></path><rect x="-46" y="46" width="92" height="22" rx="8"></rect></g></g><text x="1110" y="252" fill="#79828f" font-family="ui-monospace,SFMono-Regular,Menlo,Consolas,monospace" font-size="21" font-weight="500" text-anchor="middle">inspector</text>
<g filter="url(#gl)" opacity="0.28"><text x="617" y="330" fill="#ff8a33" font-family="ui-monospace,SFMono-Regular,Menlo,Consolas,monospace" font-size="32" font-weight="600" text-anchor="middle">$ let your agents cook</text></g>
<text x="617" y="330" fill="url(#eg)" font-family="ui-monospace,SFMono-Regular,Menlo,Consolas,monospace" font-size="32" font-weight="600" text-anchor="middle">$ let your agents cook</text>
</svg>