<svg xmlns="http://www.w3.org/2000/svg" width="1200" height="300" viewBox="0 0 1200 300" role="img" aria-label="Brigade — let your agents cook">
<defs>
<linearGradient id="eg" x1="0" y1="0" x2="1" y2="0"><stop offset="0" stop-color="#ff5c1f"></stop><stop offset="0.55" stop-color="#ff9d3d"></stop><stop offset="1" stop-color="#ffd48a"></stop></linearGradient>
<linearGradient id="egv" x1="0" y1="1" x2="0" y2="0"><stop offset="0" stop-color="#ff5c1f"></stop><stop offset="0.55" stop-color="#ff9d3d"></stop><stop offset="1" stop-color="#ffd48a"></stop></linearGradient>
<radialGradient id="warm" cx="0.5" cy="0.55" r="0.65"><stop offset="0" stop-color="#ff7a2f" stop-opacity="0.22"></stop><stop offset="1" stop-color="#ff7a2f" stop-opacity="0"></stop></radialGradient>
<filter id="gl" x="-60%" y="-60%" width="220%" height="220%"><feGaussianBlur stdDeviation="4"></feGaussianBlur></filter>
</defs>
<rect width="1200" height="300" rx="16" fill="#0e1013"></rect>
<ellipse cx="185" cy="150" rx="230" ry="170" fill="url(#warm)" opacity="0.55"></ellipse>
<g transform="translate(185,140)"><g fill="none" stroke="url(#egv)" stroke-width="4.125" stroke-linecap="round">
<g filter="url(#gl)" opacity="0.5">
<path d="M -32 -92 c 8 -12 -8 -20 0 -34 c 6 -11 -4 -16 1 -26" transform="scale(0.75)"></path>
<path d="M 2 -102 c 8 -12 -8 -20 0 -34 c 6 -11 -4 -16 1 -26" transform="scale(0.75)"></path>
<path d="M 36 -92 c 8 -12 -8 -20 0 -34" transform="scale(0.75)"></path>
</g>
<path d="M -32 -92 c 8 -12 -8 -20 0 -34 c 6 -11 -4 -16 1 -26" opacity="0.85" transform="scale(0.75)"></path>
<path d="M 2 -102 c 8 -12 -8 -20 0 -34 c 6 -11 -4 -16 1 -26" opacity="0.6" transform="scale(0.75)"></path>
<path d="M 36 -92 c 8 -12 -8 -20 0 -34" opacity="0.4" transform="scale(0.75)"></path>
</g><g fill="none" stroke="#f5f7fa" stroke-width="7" stroke-linejoin="round" stroke-linecap="round"><path d="M -42 34 L -42 12 A 24 24 0 1 1 -25 -30 A 30 30 0 0 1 25 -30 A 24 24 0 1 1 42 12 L 42 34 Z"></path><path d="M -16 8 L -16 26 M 0 10 L 0 28 M 16 8 L 16 26"></path><rect x="-46" y="46" width="92" height="22" rx="8"></rect></g></g>
<text x="320" y="142" fill="#f5f7fa" font-family="Georgia,&#39;Times New Roman&#39;,serif" font-size="72" font-weight="600" letter-spacing="0.5">Brigade</text>
<text x="324" y="197" fill="url(#eg)" font-family="ui-monospace,SFMono-Regular,Menlo,Consolas,monospace" font-size="31" font-weight="600">$ let your agents cook</text>
<rect x="324" y="224" width="410" height="3" rx="1.5" fill="url(#eg)" opacity="0.45"></rect>
</svg>